<?xml version="1.0" encoding="UTF-8" standalone="no"?>
<svg
   version="1.0"
   width="4052.1616pt"
   height="1308.739pt"
   viewBox="-1 0 4052.1605 1308.7385"
   preserveAspectRatio="xMidYMid"
   id="svg8"
   sodipodi:docname="logo2.svg"
   inkscape:version="1.2.2 (732a01da63, 2022-12-09)"
   xmlns:inkscape="http://www.inkscape.org/namespaces/inkscape"
   xmlns:sodipodi="http://sodipodi.sourceforge.net/DTD/sodipodi-0.dtd"
   xmlns:xlink="http://www.w3.org/1999/xlink"
   xmlns="http://www.w3.org/2000/svg"
   xmlns:svg="http://www.w3.org/2000/svg">
  <defs
     id="defs12">
    <color-profile
       name="_09D5"
       xlink:href="../../../../../Windows/system32/spool/drivers/color/Dell_Inspiron_16_Plus_7620_3K_BOE09D5.icm"
       id="color-profile812" />
  </defs>
  <sodipodi:namedview
     id="namedview10"
     pagecolor="#ffffff"
     bordercolor="#000000"
     borderopacity="0.25"
     inkscape:showpageshadow="2"
     inkscape:pageopacity="0"
     inkscape:pagecheckerboard="true"
     inkscape:deskcolor="#d1d1d1"
     inkscape:document-units="pt"
     showgrid="false"
     inkscape:zoom="0.48889805"
     inkscape:cx="2686.6542"
     inkscape:cy="787.48524"
     inkscape:window-width="3072"
     inkscape:window-height="1796"
     inkscape:window-x="-12"
     inkscape:window-y="-12"
     inkscape:window-maximized="1"
     inkscape:current-layer="g6" />
  <g
     transform="matrix(0.1,0,0,-0.1,-654.19574,969.87652)"
     fill="#000000"
     stroke="none"
     id="g6">
    <g
       id="g30"
       style="fill:#eb6612;fill-opacity:1;stroke:none;stroke-opacity:1"
       transform="matrix(10.531547,0,0,-10.531547,17701.504,15684.997)">
      <g
         id="g7520"
         transform="matrix(0.20039657,0,0,-0.20039657,-1168.794,1405.9389)"
         style="fill:#eb6612;fill-opacity:1;stroke-width:0.540838">
        <path
           d="m 546,4165 c -8,-21 -8,-248 0,-269 5,-13 23,-16 93,-16 97,-1 117,-10 131,-61 6,-21 10,-455 10,-1121 V 1610 h 175 175 v 430 430 h 113 c 97,0 117,-3 151,-23 43,-24 38,-16 271,-447 211,-393 199,-383 483,-388 l 192,-4 v 151 151 h -72 c -94,0 -141,14 -170,49 -14,15 -91,151 -174,301 -91,167 -165,290 -191,318 -24,25 -43,47 -43,49 0,2 25,29 55,61 30,31 169,215 310,407 l 255,350 -192,3 c -106,1 -197,1 -203,-2 -5,-2 -109,-141 -229,-310 -265,-369 -249,-356 -438,-356 h -118 v 613 c 0,336 -5,630 -10,651 -12,53 -38,87 -86,111 -35,18 -63,20 -260,23 -199,3 -222,2 -228,-13 z"
           id="path7377"
           style="fill:#eb6612;fill-opacity:1;stroke-width:0.540838" />
        <path
           d="m 9590,3494 c -14,-2 -59,-9 -100,-15 -293,-42 -570,-241 -703,-505 -80,-160 -110,-315 -97,-506 9,-128 19,-176 55,-276 71,-196 215,-371 396,-479 107,-64 188,-96 317,-123 134,-29 353,-25 474,8 295,80 523,265 647,525 116,243 115,567 -3,823 -150,324 -476,531 -864,548 -53,3 -108,3 -122,0 z m 285,-338 c 152,-51 290,-170 359,-311 49,-101 69,-189 69,-315 2,-208 -80,-388 -232,-514 -64,-53 -116,-81 -206,-111 -160,-54 -376,-30 -511,57 -199,127 -305,327 -306,578 -1,114 17,194 71,305 131,275 458,409 756,311 z"
           id="path7379"
           style="fill:#eb6612;fill-opacity:1;stroke-width:0.540838" />
        <path
           d="m 3238,3480 c -287,-52 -527,-231 -648,-486 -176,-369 -116,-842 143,-1120 89,-95 169,-155 281,-209 256,-124 571,-130 856,-18 117,46 299,162 300,190 0,13 -138,243 -146,243 -2,0 -27,-18 -56,-40 -113,-86 -288,-153 -432,-166 -191,-17 -418,74 -531,213 -80,98 -145,259 -145,360 v 43 h 669 668 l 6,73 c 7,86 -6,245 -29,335 -70,278 -243,471 -499,558 -71,24 -98,27 -235,30 -85,1 -176,-1 -202,-6 z m 281,-281 c 114,-26 206,-101 263,-216 36,-72 66,-197 55,-227 -6,-14 -56,-16 -487,-16 -391,0 -480,2 -480,13 0,7 7,38 16,68 84,282 351,442 633,378 z"
           id="path7381"
           style="fill:#eb6612;fill-opacity:1;stroke-width:0.540838" />
        <path
           d="m 7443,3480 c -154,-28 -324,-135 -426,-270 l -26,-35 -1,70 c 0,92 -28,150 -85,179 -37,19 -58,21 -253,21 h -213 l -1,-145 v -145 l 95,-5 c 59,-3 101,-10 109,-18 10,-10 14,-234 18,-1130 l 5,-1117 h 175 175 l 2,475 c 1,261 2,479 3,483 0,4 19,-16 43,-45 147,-181 397,-262 671,-218 255,41 485,228 591,480 149,352 116,805 -79,1099 -54,80 -158,181 -240,230 -31,18 -95,47 -143,64 -79,27 -103,30 -228,33 -77,2 -163,-1 -192,-6 z m 187,-304 c 204,-43 343,-191 401,-426 17,-67 22,-116 22,-230 0,-129 -3,-155 -27,-235 -36,-119 -85,-204 -159,-276 -104,-102 -220,-145 -367,-137 -77,5 -99,10 -172,46 -144,70 -245,203 -294,387 -26,98 -27,371 -1,465 80,296 326,463 597,406 z"
           id="path7383"
           style="fill:#eb6612;fill-opacity:1;stroke-width:0.540838" />
        <path
           d="m 11895,3481 c -159,-27 -350,-146 -422,-263 -31,-50 -40,-41 -40,36 -1,102 -27,148 -106,181 -29,12 -80,15 -242,15 h -205 v -150 -150 h 93 c 83,0 96,-3 113,-21 18,-20 19,-56 22,-1135 l 2,-1114 h 175 175 l 2,485 3,485 43,-55 c 112,-144 304,-227 522,-227 137,1 236,24 360,85 89,43 118,64 191,137 134,132 200,253 251,459 32,124 32,433 1,567 -75,322 -260,546 -528,638 -69,24 -99,28 -220,31 -77,2 -162,0 -190,-4 z m 243,-322 c 243,-84 377,-344 359,-694 -14,-264 -122,-451 -314,-546 -80,-40 -95,-44 -180,-47 -253,-11 -444,145 -522,428 -58,209 -28,482 71,647 121,200 364,288 586,212 z"
           id="path7385"
           style="fill:#eb6612;fill-opacity:1;stroke-width:0.540838" />
        <path
           d="m 4420,3300 v -150 h 41 c 55,0 95,-25 118,-75 16,-36 170,-390 505,-1169 64,-149 116,-278 116,-289 0,-28 -88,-234 -125,-292 -35,-55 -97,-115 -143,-139 -110,-57 -261,-31 -363,61 l -38,34 -14,-23 c -13,-22 -29,-49 -100,-176 l -29,-53 23,-25 c 37,-40 140,-101 209,-125 87,-30 248,-37 343,-15 166,39 318,161 405,324 17,31 87,197 156,367 68,171 229,567 356,880 127,314 241,594 253,624 25,64 62,91 125,91 h 42 v 150 150 h -144 c -187,0 -239,-18 -292,-102 -14,-21 -70,-161 -125,-311 -55,-150 -148,-400 -205,-556 -58,-156 -117,-326 -132,-378 -14,-51 -29,-88 -32,-81 -4,7 -15,45 -25,83 -15,61 -84,237 -390,996 -83,207 -113,266 -150,296 -54,46 -84,53 -240,53 h -145 z"
           id="path7387"
           style="fill:#eb6612;fill-opacity:1;stroke-width:0.540838" />
      </g>
    </g>
    <g
       id="g8735"
       transform="translate(38591.328,1628.0856)"
       style="fill:#eb6612;fill-opacity:1">
      <g
         transform="matrix(4.1850399,0,0,4.1850399,-12296.905,-6052.2509)"
         fill="#000000"
         stroke="none"
         id="g4248"
         style="fill:#eb6612;fill-opacity:1;stroke-width:0.238946">
        <path
           d="m 4160,3349 c -47,-19 -90,-59 -90,-85 0,-28 32,-64 59,-64 10,0 30,9 44,20 38,30 97,27 130,-7 52,-55 75,-149 55,-228 l -13,-50 -83,-7 c -96,-8 -157,-24 -300,-80 l -103,-40 -157,26 c -307,51 -484,21 -591,-100 -55,-63 -75,-131 -69,-238 6,-101 36,-174 90,-220 l 39,-34 -25,-50 c -14,-28 -38,-90 -52,-139 -49,-166 -32,-466 30,-528 37,-37 188,-68 331,-69 128,0 226,19 350,69 l 60,25 37,-44 c 58,-67 121,-91 243,-91 84,0 109,4 152,24 159,71 222,273 178,566 -8,55 -20,125 -26,155 -11,53 -10,58 24,135 66,149 80,202 85,318 5,121 4,120 88,132 63,8 123,-7 164,-41 36,-31 39,-62 9,-129 -25,-56 -16,-90 27,-101 36,-9 54,3 86,62 30,53 37,129 17,181 -16,44 -69,93 -129,121 -71,34 -199,37 -273,8 l -48,-19 -23,23 c -24,21 -24,24 -10,63 58,164 -9,369 -141,428 -43,20 -125,24 -165,8 z m 207,-565 c 53,-40 67,-70 71,-149 3,-60 -1,-89 -23,-155 -15,-45 -31,-78 -35,-73 -4,4 -24,52 -45,106 -21,55 -46,109 -56,121 -9,12 -65,42 -123,66 -123,51 -123,57 -6,89 93,26 179,23 217,-5 z m -751,-55 c 122,-17 326,-72 457,-124 9,-4 17,-10 17,-15 0,-9 -235,-121 -362,-171 -215,-86 -404,-112 -489,-68 -52,26 -78,81 -79,162 0,119 60,194 173,217 62,12 195,12 283,-1 z m 641,-345 c 45,-129 92,-331 104,-442 19,-171 -7,-309 -68,-364 -88,-80 -272,-58 -317,37 -39,83 -13,269 64,470 48,122 172,376 184,372 5,-2 20,-34 33,-73 z m -243,-2 c 15,-18 14,-23 -20,-97 l -36,-78 -59,59 c -32,32 -59,60 -59,62 0,3 141,70 151,71 3,1 13,-7 23,-17 z m -261,-260 127,-128 -22,-97 -23,-97 -204,204 -204,204 39,7 c 21,4 59,13 84,20 25,8 52,14 60,14 8,1 73,-57 143,-127 z m -43,-494 c 0,-8 -82,-33 -142,-43 l -38,-6 -172,172 -171,173 18,70 c 32,127 9,137 271,-125 129,-129 234,-237 234,-241 z"
           id="path4222"
           style="fill:#eb6612;fill-opacity:1;stroke-width:0.238946" />
        <path
           d="m 1838,1993 c -42,-46 -8,-103 60,-103 19,0 69,-9 113,-20 86,-22 112,-18 124,21 15,47 -1,67 -73,89 -37,12 -98,24 -137,27 -61,5 -72,3 -87,-14 z"
           id="path4224"
           style="fill:#eb6612;fill-opacity:1;stroke-width:0.238946" />
        <path
           d="m 1625,1953 c -66,-34 -155,-143 -155,-188 0,-54 76,-74 107,-28 17,25 76,85 136,138 22,19 27,30 22,48 -14,47 -56,59 -110,30 z"
           id="path4226"
           style="fill:#eb6612;fill-opacity:1;stroke-width:0.238946" />
        <path
           d="m 2222,1858 c -7,-7 -12,-26 -12,-42 0,-24 12,-42 58,-86 31,-30 71,-72 89,-93 37,-45 65,-46 96,-5 18,24 18,30 7,58 -7,17 -46,65 -87,106 -61,62 -78,74 -106,74 -18,0 -38,-5 -45,-12 z"
           id="path4228"
           style="fill:#eb6612;fill-opacity:1;stroke-width:0.238946" />
        <path
           d="m 1449,1598 c -23,-43 18,-246 56,-278 26,-22 66,-16 87,11 l 20,27 -20,55 c -12,30 -24,79 -28,109 -9,74 -26,98 -69,98 -25,0 -37,-6 -46,-22 z"
           id="path4230"
           style="fill:#eb6612;fill-opacity:1;stroke-width:0.238946" />
        <path
           d="m 2446,1515 c -12,-13 -15,-42 -15,-147 0,-205 16,-221 180,-167 109,35 149,60 149,89 0,64 -39,78 -129,46 l -68,-24 -10,95 c -8,74 -15,100 -29,110 -24,17 -59,17 -78,-2 z"
           id="path4232"
           style="fill:#eb6612;fill-opacity:1;stroke-width:0.238946" />
        <path
           d="m 2913,1451 c -70,-33 -91,-61 -74,-97 19,-43 53,-47 126,-14 47,21 68,37 75,55 12,30 0,59 -30,75 -26,14 -27,14 -97,-19 z"
           id="path4234"
           style="fill:#eb6612;fill-opacity:1;stroke-width:0.238946" />
        <path
           d="m 1646,1251 c -43,-47 3,-105 108,-137 123,-37 189,-27 189,30 0,39 -21,55 -92,71 -34,8 -79,24 -101,35 -49,25 -82,25 -104,1 z"
           id="path4236"
           style="fill:#eb6612;fill-opacity:1;stroke-width:0.238946" />
        <path
           d="m 2220,1224 c -41,-8 -95,-17 -120,-21 -33,-6 -48,-15 -59,-34 -13,-24 -13,-29 2,-53 16,-23 24,-26 75,-26 80,0 199,24 223,45 27,25 24,60 -7,84 -15,12 -29,20 -33,20 -3,-1 -40,-8 -81,-15 z"
           id="path4238"
           style="fill:#eb6612;fill-opacity:1;stroke-width:0.238946" />
        <path
           d="m 2390,1108 c -10,-12 -87,-143 -117,-201 -13,-25 -13,-30 1,-52 21,-32 52,-40 81,-21 25,17 97,133 123,198 13,34 13,40 -2,63 -18,27 -67,35 -86,13 z"
           id="path4240"
           style="fill:#eb6612;fill-opacity:1;stroke-width:0.238946" />
        <path
           d="m 2175,770 c -11,-4 -57,-46 -102,-93 -88,-89 -100,-118 -65,-150 24,-22 58,-22 85,1 12,9 53,50 91,89 76,80 86,112 46,145 -25,20 -27,20 -55,8 z"
           id="path4242"
           style="fill:#eb6612;fill-opacity:1;stroke-width:0.238946" />
        <path
           d="m 1753,471 c -131,-53 -153,-78 -117,-130 14,-20 23,-23 58,-19 46,6 185,61 217,87 24,19 28,63 9,86 -19,23 -67,16 -167,-24 z"
           id="path4244"
           style="fill:#eb6612;fill-opacity:1;stroke-width:0.238946" />
        <path
           d="m 1390,368 c -59,-13 -70,-23 -70,-64 0,-54 28,-66 118,-50 83,14 95,23 95,67 0,56 -41,69 -143,47 z"
           id="path4246"
           style="fill:#eb6612;fill-opacity:1;stroke-width:0.238946" />
      </g>
    </g>
  </g>
</svg>
